<svg width="20" height="12" viewBox="0 0 20 12" fill="none" xmlns="http://www.w3.org/2000/svg">
<path d="M0.750183 6.75C4.35018 -1.25 15.1502 -1.25 18.7502 6.75" stroke="#222222" stroke-width="1.5" stroke-linecap="round" stroke-linejoin="round"/>
<path d="M9.75018 10.75C9.35622 10.75 8.96611 10.6724 8.60213 10.5216C8.23816 10.3709 7.90744 10.1499 7.62886 9.87132C7.35029 9.59274 7.12931 9.26203 6.97854 8.89805C6.82778 8.53407 6.75018 8.14397 6.75018 7.75C6.75018 7.35603 6.82778 6.96593 6.97854 6.60195C7.12931 6.23797 7.35029 5.90726 7.62886 5.62868C7.90744 5.3501 8.23816 5.12913 8.60213 4.97836C8.96611 4.8276 9.35622 4.75 9.75018 4.75C10.5458 4.75 11.3089 5.06607 11.8715 5.62868C12.4341 6.19129 12.7502 6.95435 12.7502 7.75C12.7502 8.54565 12.4341 9.30871 11.8715 9.87132C11.3089 10.4339 10.5458 10.75 9.75018 10.75Z" fill="#222222" stroke="#222222" stroke-width="1.5" stroke-linecap="round" stroke-linejoin="round"/>
</svg>
